<svg xmlns="http://www.w3.org/2000/svg" height="24" viewBox="0 -960 960 960" width="24"><path d="M160-607.693h640v-87.692q0-9.23-7.692-16.923Q784.615-720 775.385-720h-590.77q-9.23 0-16.923 7.692Q160-704.615 160-695.385v87.692Zm-40-87.692Q120-723 138.5-741.5 157-760 184.615-760h590.77Q803-760 821.5-741.5 840-723 840-695.385v183.078H160v247.692q0 9.23 7.692 16.923Q175.385-240 184.615-240h186.308v40H184.615Q157-200 138.5-218.5 120-237 120-264.615v-430.77Zm465.692 556.924L443.385-280.769l28.307-28.308 114 113.539 227.539-227.539 28.308 28.77-255.847 255.846ZM160-695.385v430.77q0 9.23 7.692 16.923Q175.385-240 184.615-240H160v-182.308 113.77V-720h24.615q-9.23 0-16.923 7.692Q160-704.615 160-695.385Z"/></svg>